<?xml version="1.0" encoding="utf-8"?>
<!-- Generator: Adobe Illustrator 26.0.3, SVG Export Plug-In . SVG Version: 6.00 Build 0)  -->
<svg version="1.1" id="bugShotSquare" xmlns="http://www.w3.org/2000/svg" xmlns:xlink="http://www.w3.org/1999/xlink" x="0px"
	 y="0px" viewBox="0 0 145 145" style="enable-background:new 0 0 145 145;" xml:space="preserve">
<style type="text/css">
	.st0{fill:#23A1DB;}
</style>
<path id="bug" class="st0" d="M126,83.4c0.1-1.2-0.3-2.5-1.2-3.4c-0.9-1-2.5-2.6-16.9-2.3c-0.7-2.6-1.7-5.1-3.1-7.5l-2.3-3.9
	c1.9-2.2,4-4.5,5.4-6c3,2.7,7.9,6.5,11.8,7.6c2.1,0.6,4.2-0.7,4.8-2.8c0.6-2.1-0.7-4.2-2.8-4.8c-3.2-0.8-9.4-6.3-10.5-7.5
	c-0.8-0.9-1.9-1.5-3.1-1.5c-1.5,0-2.9,0-9.8,7.9L96.6,56c-0.9-1.6-2-3.1-3.2-4.5c2.2-2.3,4-4.9,5.5-7.7c1.5-3.2,0.6-6.6-0.2-9.2
	c-0.3-1-0.6-2.1-0.6-3.1c0.7-2-0.3-4.3-2.3-5c-1.9-0.7-4,0.2-4.9,2c-1.2,2.8-0.4,5.7,0.3,8.2c0.4,1.3,0.9,3.3,0.6,4
	c-1.2,2.1-2.7,4.1-4.4,5.8c-2.6-1.7-5.4-3-8.4-3.7c-1-0.3-2-0.5-3.1-0.6c0.2-3-0.5-6.1-2.1-8.7l0,0c-2.7-4.4-7.3-7.2-12.4-7.8
	l2.3-9.9c0.5-2.1-0.9-4.2-3-4.6c-2.1-0.4-4.1,0.8-4.6,2.9l-2.8,12.1c-2.3,0.6-4.5,1.4-6.5,2.6c-1.8,1.1-3.4,2.3-4.9,3.8l-11.8-4
	c-2-0.8-4.3,0.3-5,2.3s0.3,4.3,2.3,5c0.1,0,0.2,0.1,0.2,0.1l9.8,3.3c-2.2,5.1-2.3,10.7,0.4,15.3c1.4,2.3,3.3,4.2,5.7,5.6
	c-1.7,3.8-2.6,7.9-2.5,12.1c-2.3,0.5-4.7,0.6-7,0.6c-0.7-0.1-2.1-1.6-3-2.6c-1.8-1.9-3.8-4.1-6.8-4.6c-2.1-0.3-4.1,1.1-4.5,3.2
	c-0.3,2.1,1.1,4.1,3.2,4.4H23c0.9,0.6,1.7,1.4,2.4,2.2c1.9,2,4.2,4.6,7.8,5c0.6,0.1,1.3,0.1,1.9,0.1c2.4-0.1,4.8-0.3,7.2-0.7
	c0.7,2.2,1.6,4.4,2.8,6.4l1.1,1.9c-10.2,1.8-10.9,3-11.7,4.2c-0.6,1-0.8,2.3-0.4,3.4c0.5,1.6,1.8,9.8,0.9,12.9
	c-0.6,2.1,0.6,4.2,2.6,4.8c0.4,0.1,0.7,0.2,1.1,0.2c1.7,0,3.2-1.1,3.7-2.8c1.2-3.9,0.5-10.1-0.2-14.1c2.1-0.5,5.2-1,8.1-1.5l2.9,5
	c1.1,1.9,2.5,3.7,4,5.3c-8,12.4-7.5,14.5-7.1,15.9c0.3,1.2,1.1,2.2,2.2,2.7c3.4,1.5,6.8,2.7,10.4,3.8c3.2,1,8.4,2.6,10.1,3.8
	c0.4,1.4,1.5,2.5,3,2.8c0.3,0.1,0.5,0.1,0.8,0.1c1.8,0,3.4-1.3,3.8-3.1c1.2-5.8-6.1-8.1-15.4-11c-2.2-0.7-4.5-1.4-6.4-2.1
	c1-2,2.8-5,4.7-7.9c4.5,2.7,9.6,4.1,14.9,4.1c5.1,0,10.1-1.4,14.6-4l1.8-1c6.6-3.9,11.4-10.2,13.3-17.6c0.6-2.2,0.9-4.4,0.9-6.6
	c3.4,0,6.7,0,8.9,0.2c-0.4,2-1,4.3-1.6,6.6c-2.4,9.4-4.3,16.9,1.3,18.9c0.4,0.2,0.9,0.2,1.3,0.2c2.1,0,3.9-1.7,3.9-3.9
	c0-1-0.4-2-1.1-2.7c0-2.1,1.3-7.3,2.2-10.6C124.7,90.6,125.5,87,126,83.4z"/>
<g id="sucher">
	<g>
		<path class="st0" d="M1.2,10v34.8h6.3V10c0.1-1.4,1.2-2.5,2.6-2.6h34.8V1.1H10.1C5.2,1.1,1.2,5.1,1.2,10z M134.9,1.1h-34.8v6.3
			h34.8c1.4,0.1,2.5,1.2,2.6,2.6v34.8h6.3V10C143.8,5.1,139.8,1.1,134.9,1.1z M137.5,134.8c0,1.4-1.2,2.6-2.6,2.6h-34.8v6.3h34.8
			c4.9,0,8.9-4,8.9-8.9V100h-6.3L137.5,134.8L137.5,134.8z M7.5,134.8V100H1.2v34.8c0,4.9,4,8.9,8.9,8.9h34.8v-6.3H10.1
			C8.7,137.4,7.6,136.2,7.5,134.8z"/>
	</g>
</g>
</svg>
