<?xml version="1.0" encoding="utf-8"?>
<!-- Generator: Adobe Illustrator 26.0.3, SVG Export Plug-In . SVG Version: 6.00 Build 0)  -->
<svg version="1.1" id="bugShotQuer" xmlns="http://www.w3.org/2000/svg" xmlns:xlink="http://www.w3.org/1999/xlink" x="0px"
	 y="0px" viewBox="0 0 208.4 70.3" style="enable-background:new 0 0 208.4 70.3;" xml:space="preserve">
<style type="text/css">
	.st0{fill:#23A1DB;}
	.st1{fill:#5E5E5E;}
</style>
<g id="cloudogu">
	<g>
		<path class="st0" d="M121.4,10.1h-3.1c-0.4,0-0.7,0.3-0.7,0.7v13.5c-1.2,0.7-2.4,1.2-3.8,1.3c-0.7,0.1-1.5-0.1-2.1-0.6
			c-0.6-0.6-0.8-1.5-0.8-3.2v-11c0-0.4-0.3-0.7-0.7-0.7h-3.1c-0.4,0-0.7,0.3-0.7,0.7v10.9c0,2.8,0.4,4.9,1.7,6.1
			c1.1,1,2.6,1.5,4.1,1.4c1.9,0,3.7-0.6,5.3-1.7v0.8c0,0.4,0.3,0.7,0.7,0.7h3.1c0.4,0,0.7-0.3,0.7-0.6V10.8
			C122.1,10.4,121.7,10.1,121.4,10.1z M104.8,10.2h-7.9c-5.8,0-8,2.8-8,6.2v0.2c-0.1,1.4,0.4,2.9,1.4,3.9c-0.9,0.6-1.4,1.6-1.4,2.7
			c0,1.2,0.6,2.4,1.5,3.1c-1.1,0.9-1.7,2.3-1.7,3.7v0.2c0,3.5,2.9,5.6,8.3,5.6c5.7,0,8.2-1.9,8.2-5.3v-0.2c0-3.6-3-4.3-7.5-5.4
			l-4-0.9c-0.8-0.2-1.1-0.4-1.1-1.1c0-0.4,0.2-0.7,0.6-0.9c1.2,0.4,2.4,0.6,3.6,0.6c5.1,0,8-1.9,8-6.1v-0.2c0-1-0.3-1.9-0.8-2.7
			l1.1-0.4c0.4-0.1,0.5-0.2,0.6-0.7v-1.3C105.7,10.6,105.3,10.2,104.8,10.2z M93.1,30c-0.1-0.9,0.2-1.7,0.8-2.4l3,0.7
			c3.6,0.8,4,1.3,4,2l0,0.3c0,1.2-0.6,1.9-3.8,1.9c-3.2,0-4-0.8-4-2.2V30z M100.5,16.6c0,1.7-0.8,2.7-3.6,2.7
			c-3.1,0-3.6-1.4-3.6-2.7v-0.3c0-1.6,0.8-2.8,3.6-2.8c2.9,0,3.6,1.2,3.6,2.8V16.6z M79.8,9.8c-5.2,0-8,3.6-8,8.4v2.7
			c0,4.8,2.7,8.4,8,8.4c5.3,0,8-3.6,8-8.4v-2.7C87.8,13.4,85.1,9.8,79.8,9.8z M83.4,20.9c0,2.8-1.2,4.5-3.6,4.5
			c-2.4,0-3.6-1.8-3.6-4.5v-2.7c0-2.8,1.2-4.5,3.6-4.5c2.4,0,3.6,1.8,3.6,4.5V20.9z M69.7,3.5h-3.1c-0.4,0-0.7,0.3-0.7,0.7v6
			c-1.1-0.1-2.1-0.2-3.2-0.2c-5.4,0-8,3.2-8,8.4v2.6c0,5.2,2.6,8.4,8,8.4c2.3,0,4.5-0.3,6.8-0.9c0.8-0.2,0.9-0.4,0.9-0.9V4.1
			C70.4,3.8,70.1,3.5,69.7,3.5z M65.9,25.4c-1.1,0.2-2.1,0.2-3.2,0.2c-2.9,0-3.6-2-3.6-4.8v-2.6c0-2.8,0.7-4.8,3.6-4.8
			c1.1,0,2.2,0.1,3.2,0.2V25.4z M52.6,10.1h-3.1c-0.4,0-0.7,0.3-0.7,0.7v13.5c-1.2,0.7-2.5,1.2-3.8,1.3c-0.7,0.1-1.5-0.1-2.1-0.6
			c-0.6-0.6-0.8-1.5-0.8-3.2v-11c0-0.4-0.3-0.7-0.7-0.7h-3.1c-0.4,0-0.7,0.3-0.7,0.7v10.9c0,2.8,0.4,4.9,1.7,6.1
			c1.1,1,2.6,1.5,4.1,1.4c1.9,0,3.8-0.6,5.3-1.7v0.8c0,0.4,0.3,0.7,0.7,0.7h3.1c0.4,0,0.7-0.3,0.7-0.6V10.8
			C53.2,10.4,52.9,10.1,52.6,10.1z M28.3,9.8c-5.2,0-8,3.6-8,8.4v2.7c0,4.8,2.7,8.4,8,8.4c5.3,0,8-3.6,8-8.4v-2.7
			C36.3,13.4,33.5,9.8,28.3,9.8z M31.9,20.9c0,2.8-1.2,4.5-3.6,4.5c-2.3,0-3.6-1.8-3.6-4.5v-2.7c0-2.8,1.2-4.5,3.6-4.5
			s3.6,1.8,3.6,4.5V20.9z M18.1,3.5H15c-0.4,0-0.7,0.3-0.7,0.7v24.2c0,0.4,0.3,0.7,0.7,0.7h3.2c0.3,0,0.6-0.3,0.6-0.7V4.1
			c0,0,0,0,0,0C18.8,3.8,18.5,3.5,18.1,3.5z M12.5,10.3C11.1,10,9.6,9.8,8.2,9.8c-4.4,0-7.7,2.7-7.7,8.2v3.1c0,5.5,3.3,8.2,7.7,8.2
			c1.5,0,2.9-0.1,4.3-0.4c0.6-0.1,0.7-0.3,0.7-0.9v-2.2c0-0.3-0.3-0.5-0.6-0.5h-0.1c-1.4,0.2-2.9,0.3-4.3,0.2
			c-1.6,0-3.2-0.9-3.2-4.4V18c0-3.5,1.6-4.4,3.2-4.4c1.5,0,2.9,0,4.3,0.2h0.1c0.3,0,0.6-0.2,0.6-0.5v-2.2
			C13.2,10.6,13.1,10.4,12.5,10.3z"/>
	</g>
</g>
<g id="bugshot">
	<g>
		<path class="st1" d="M121.6,60.4h-2.1c-1.5,0-2-0.3-2-2.3V45.1h4c0.4,0,0.7-0.3,0.7-0.7v-1.3c0-0.4-0.3-0.7-0.7-0.7h-4v-4
			c0-0.4-0.3-0.6-0.6-0.6c0,0-0.1,0-0.1,0l-1.9,0.3c-0.4,0.1-0.7,0.4-0.7,0.7v3.6h-3.6c-0.4,0-0.7,0.3-0.7,0.7v1
			c0,0.4,0.3,0.6,0.7,0.7l3.6,0.4V58c0,4.1,1.6,5,5,5c0.7,0,1.7-0.1,2.4-0.2c0.5-0.1,0.7-0.3,0.7-0.6v-1.3
			C122.3,60.5,122.1,60.4,121.6,60.4z M101.7,42.1c-5.4,0-8.2,3.6-8.2,9V54c0,5.4,2.8,9,8.2,9c5.4,0,8.3-3.6,8.3-9v-2.8
			C110,45.7,107.2,42.1,101.7,42.1z M106.7,54c0,3.8-1.6,6.2-5,6.2c-3.5,0-5-2.4-5-6.2v-2.8c0-3.8,1.5-6.2,5-6.2c3.5,0,5,2.4,5,6.2
			V54z M84.7,42.1c-1.6,0-3.9,0.4-5.7,1.1v-7.6c0-0.4-0.3-0.7-0.7-0.7h-1.9c-0.4,0-0.7,0.3-0.7,0.7V62c0,0.4,0.3,0.7,0.7,0.7h1.8
			c0.4,0,0.7-0.4,0.7-0.7V46c1.6-0.7,4-1,5.1-1c2.4,0,4,1.1,4,4.8V62c0,0.4,0.3,0.7,0.7,0.7h1.8c0.4,0,0.7-0.3,0.7-0.7V49.8
			C91.4,44.4,88.6,42.1,84.7,42.1z M68.2,48l-3.4-2c-2.8-1.7-4-2.7-4-4.5c0-2.7,1.6-3.5,5.4-3.5c2.1,0,4.7,0.1,6.4,0.2
			c0,0,0,0,0.1,0c0.4,0,0.6-0.2,0.6-0.6v-1.6c0-0.4-0.3-0.6-0.6-0.6c-1.4-0.2-4.3-0.4-6.4-0.4c-5.6,0-8.8,2.1-8.8,6.6
			c0,3,1.7,4.8,5.1,6.9l3.6,2.2c3.4,2.1,4.4,3.1,4.4,5c0,2.6-1.2,4.4-5.6,4.4c-1.7,0-4.4-0.1-6.1-0.2c0,0-0.1,0-0.1,0
			c-0.3,0-0.6,0.2-0.6,0.6v1.5c0,0.4,0.1,0.6,0.7,0.7c1.6,0.3,3.6,0.5,6.1,0.5c7.3,0,9.1-3.8,9.1-7.4C74,52.6,72.5,50.6,68.2,48z
			 M54.8,42.4h-8.1c-6.4,0-8.2,3.3-8.2,6.5v0.3c0,1.9,0.6,3.2,1.7,4.3c-1,0.6-1.5,1.7-1.5,2.7v0c0,1.1,0.5,2.4,1.7,2.9l0.3,0.1
			c-1.2,0.9-2.3,2.6-2.3,4.7v0.3c0,3.6,2.7,5.9,8.5,5.9c6.1,0,8.4-2.2,8.4-5.7v-0.3c0-3.5-3.5-4.5-7.1-5.4l-5.5-1.4
			c-0.9-0.2-1.1-0.6-1.1-1.2c0-0.6,0.3-1,0.9-1.3c1.1,0.4,2.3,0.7,4.3,0.7c5.7,0,8.2-2.3,8.2-6.3v-0.3c0-2-0.6-3.1-1.3-3.8l1.3-0.3
			c0.4-0.1,0.7-0.2,0.7-0.7v-1C55.7,42.7,55.3,42.4,54.8,42.4z M43.3,60.1l4.2,1.1c3.3,0.9,4.5,1.4,4.5,2.9v0.3c0,2-1,3.2-5.2,3.2
			c-4.1,0-5.3-1.3-5.3-3.4v-0.3C41.5,62,42.2,61.1,43.3,60.1z M51.7,49.2c0,2.2-1,3.8-5,3.8c-4.3,0-5-2.1-5-3.8v-0.3
			c0-2.1,0.9-4,5-4c4,0,5,1.7,5,4V49.2z M35.7,42.4h-1.8c-0.4,0-0.7,0.4-0.7,0.7v15.6c-1.7,0.9-3.4,1.4-5,1.4
			c-2.8,0-4.1-1.1-4.1-4.9V43.1c0-0.4-0.3-0.7-0.7-0.7h-1.8c-0.4,0-0.7,0.3-0.7,0.7v12.2c0,4.9,2,7.7,6.4,7.7c2.2,0,3.8-0.6,5.9-1.7
			V62c0,0.4,0.3,0.7,0.7,0.7h1.9c0.4,0,0.7-0.3,0.7-0.7V43.1C36.4,42.7,36.1,42.4,35.7,42.4z M14.7,48.5c2.5-1,4-3.1,4-5.8v-0.6
			c0-5.6-5-7.1-10.8-7.1c-2.4,0-4.7,0.1-5.9,0.3c-0.8,0.1-1.2,0.5-1.2,1.4v24.6c0,0.9,0.4,1.3,1.2,1.4C3.3,62.9,5.5,63,8,63
			c5.8,0,10.8-1.6,10.8-7.8v-0.6C18.8,51.7,17.2,49.4,14.7,48.5z M4.1,37.9c1,0,2.4-0.1,3.7-0.1c4.5,0,7.5,0.7,7.5,4.3v0.6
			c0,2.3-1.1,4.4-5.4,4.4H4.1V37.9z M15.4,55.1c0,4-2.8,5-7.4,5c-1.3,0-2.6-0.1-3.8-0.1V49.8h5.7c4.4,0,5.6,2.3,5.6,4.7V55.1z"/>
	</g>
</g>
<g id="sucher">
	<g>
		<path class="st1" d="M138.5,4.6v17.5h3V4.6c0-0.7,0.6-1.3,1.3-1.3h17.5v-3h-17.5C140.4,0.3,138.5,2.2,138.5,4.6z M203.7,0.3
			C203.7,0.3,203.7,0.3,203.7,0.3l-17.5,0v3h17.4c0.7,0,1.3,0.6,1.4,1.3c0,0,0,0,0,0v17.5h3V4.6C208,2.2,206,0.3,203.7,0.3z
			 M205,65.5c0,0.7-0.6,1.3-1.3,1.3h-17.5v3h17.4c2.4,0,4.3-1.9,4.3-4.3V48.1H205V65.5z M141.4,65.5V48.1h-3v17.4
			c0,2.4,1.9,4.3,4.3,4.3h17.5v-3h-17.4C142,66.8,141.4,66.2,141.4,65.5z"/>
	</g>
</g>
<path id="bug" class="st0" d="M198.5,38.5c-0.5-0.5-1.2-1.3-8.1-1.2c-0.3-1.2-0.8-2.4-1.4-3.5l-1-1.7c0.9-1,1.7-1.9,2.4-2.6
	c1.1,1,3.6,3,5.6,3.5c1.1,0.3,2.2-0.4,2.5-1.5c0.3-1.1-0.4-2.2-1.5-2.5c-1.4-0.4-4.4-3-4.9-3.6c-0.4-0.5-1-0.8-1.7-0.8h-0.1
	c-0.8,0-1.5,0.1-4.6,3.6l-0.7-1.3c-0.4-0.7-1-1.4-1.5-2.1c1-1.1,1.9-2.3,2.6-3.6c0.5-1.5,0.5-3.1-0.1-4.6c-0.1-0.5-0.2-0.9-0.3-1.4
	c0.2-0.5,0.2-1.1,0-1.6c-0.4-1.1-1.7-1.6-2.7-1.1c-0.5,0.2-0.9,0.6-1.1,1.1c-0.4,1.3-0.4,2.8,0.2,4.1c0.2,0.6,0.3,1.2,0.3,1.8
	c-0.5,0.9-1.2,1.8-1.9,2.6c-1.2-0.8-2.6-1.4-4-1.7c-0.4-0.1-0.9-0.2-1.3-0.3c0.1-1.4-0.3-2.9-1-4.1c-1.3-2.1-3.4-3.5-5.9-3.8l1-4.6
	c0.1-0.5,0-1.1-0.3-1.6c-0.3-0.5-0.8-0.8-1.3-0.9c-1.1-0.3-2.2,0.4-2.5,1.5l-1.3,5.7c-2,0.5-3.9,1.5-5.4,3l-5.6-1.9
	c-1.1-0.4-2.2,0.2-2.6,1.3c-0.2,0.5-0.1,1.1,0.1,1.6c0.2,0.5,0.7,0.9,1.2,1l4.5,1.5c-1.1,2.4-1,5.1,0.3,7.4c0.7,1.1,1.6,2,2.7,2.7
	c-0.3,0.6-0.5,1.3-0.7,2c-0.3,1.2-0.5,2.4-0.5,3.6c-1,0.2-2.1,0.3-3.1,0.3c-0.3,0-1-0.8-1.3-1.2c-0.8-1.1-2-1.9-3.4-2.3
	c-1.1-0.2-2.2,0.6-2.4,1.7c0,0,0,0,0,0c-0.1,0.5,0.1,1.1,0.4,1.5c0.3,0.4,0.8,0.7,1.3,0.8c0.4,0.3,0.7,0.6,1.1,1
	c0.9,1.3,2.3,2.1,3.9,2.5c1.4,0.1,2.9,0,4.3-0.3c0.3,1,0.8,2.1,1.3,3l0.4,0.7c-4.7,0.8-5.1,1.4-5.4,2.1c-0.3,0.5-0.4,1.2-0.2,1.8
	c0.2,0.8,0.9,4.7,0.4,6.1c-0.3,1.1,0.3,2.2,1.4,2.6c0.2,0.1,0.4,0.1,0.6,0.1c0.9,0,1.7-0.6,2-1.5c0.6-2,0.2-5.2-0.1-6.7
	c0.9-0.2,2.2-0.5,3.5-0.7l1.3,2.3c0.5,0.9,1.1,1.7,1.8,2.5c-3.8,5.9-3.6,7-3.4,7.7c0.2,0.6,0.6,1.2,1.2,1.5c1.6,0.7,3.3,1.3,5,1.8
	c1.6,0.5,3.2,1.1,4.8,1.8c0.2,0.7,0.8,1.3,1.6,1.4c0.1,0,0.3,0,0.4,0l0,0c1,0,1.8-0.7,2-1.6c0.6-3-3-4.1-7.5-5.5
	c-1-0.3-2-0.6-2.9-0.9c0.5-0.9,1.2-2.1,2-3.4c2.2,1.2,4.6,1.9,7.1,1.9c2.5,0,4.9-0.7,7.1-1.9l0.9-0.5c3.2-1.9,5.6-5,6.5-8.6
	c0.3-1,0.4-2,0.4-3c1.5,0,2.9,0,3.9,0.1c-0.2,0.9-0.4,1.9-0.7,2.9v0.1c-1.2,4.6-2.1,8.3,0.7,9.3c0.2,0.1,0.5,0.1,0.7,0.1
	c1.1,0.1,2.1-0.8,2.2-1.9c0-0.6-0.2-1.1-0.6-1.5c0.2-1.7,0.5-3.4,1-5c0.5-1.7,0.8-3.5,1.1-5.2l0,0C199.2,39.6,198.9,39,198.5,38.5z"
	/>
</svg>
